<svg width="20.999817" height="21.000000" viewBox="0 0 20.9998 21" fill="none" xmlns="http://www.w3.org/2000/svg" xmlns:xlink="http://www.w3.org/1999/xlink">
	<desc>
			Created with Pixso.
	</desc>
	<defs/>
	<path id="Vector" d="M20.87 6.22L18.63 4.87L18.63 0.28C18.63 0.13 18.52 0.02 18.37 0.02L15.06 0.02C14.91 0.02 14.79 0.13 14.79 0.28L14.79 2.55L10.63 0.03C10.61 0.02 10.58 0.01 10.55 0C10.48 -0.01 10.41 0 10.35 0.03L0.12 6.22C0.04 6.27 0 6.35 0 6.45L0 8.61C0 8.71 0.05 8.79 0.13 8.84C0.21 8.89 0.31 8.89 0.39 8.84L1.93 7.94L1.93 18.52L1.2 18.52C1.05 18.52 0.94 18.63 0.94 18.78L0.94 20.73C0.94 20.88 1.05 21 1.2 21L19.79 21C19.94 21 20.06 20.88 20.06 20.73L20.06 18.78C20.06 18.63 19.94 18.52 19.79 18.52L19.06 18.52L19.06 7.94L20.6 8.84C20.64 8.86 20.69 8.87 20.73 8.87C20.78 8.87 20.82 8.86 20.86 8.84C20.94 8.79 20.99 8.71 20.99 8.61L20.99 6.45C20.99 6.35 20.95 6.27 20.87 6.22ZM15.32 0.54L18.11 0.54L18.11 4.55L15.32 2.87L15.32 0.54ZM19.53 20.47L1.46 20.47L1.46 19.04L19.53 19.04L19.53 20.47ZM12.86 18.52L8.13 18.52L8.13 10.32L12.86 10.32L12.86 18.52ZM18.53 18.52L13.38 18.52L13.38 10.06C13.38 9.91 13.27 9.79 13.12 9.79L7.87 9.79C7.73 9.79 7.61 9.91 7.61 10.06L7.61 18.52L2.46 18.52L2.46 7.63L10.49 2.93L18.53 7.63L18.53 18.52ZM20.47 8.15L10.62 2.4C10.58 2.38 10.54 2.37 10.49 2.37C10.45 2.37 10.4 2.38 10.36 2.4L0.52 8.15L0.52 6.59L10.49 0.56L20.47 6.59L20.47 8.15Z" fill="#31353B" fill-opacity="1.000000" fill-rule="nonzero"/>
</svg>
