<svg width="71.000000" height="23.000000" viewBox="0 0 71 23" fill="none" xmlns="http://www.w3.org/2000/svg" xmlns:xlink="http://www.w3.org/1999/xlink">
	<desc>
			Created with Pixso.
	</desc>
	<defs/>
	<path id="Vector" d="M14.68 11C15.86 11.09 16.85 11.57 17.7 12.47C18.55 13.37 18.97 14.6 18.97 16.17C18.97 18.06 18.36 19.63 17.08 20.77C15.81 21.9 14.02 22.47 11.61 22.47L0 22.47L0 0L11.56 0C13.59 0 15.24 0.56 16.47 1.65C17.7 2.79 18.31 4.26 18.31 6.11C18.31 7.54 17.93 8.63 17.13 9.48C16.33 10.33 15.53 10.76 14.63 10.85L14.68 11ZM5.52 9.29L10.33 9.29C11.14 9.29 11.8 9.05 12.32 8.58C12.79 8.1 13.07 7.54 13.07 6.73C13.07 6.02 12.84 5.5 12.36 5.07C11.89 4.64 11.28 4.45 10.57 4.45L5.52 4.45L5.52 9.29ZM10.62 18.02C11.47 18.02 12.17 17.78 12.65 17.35C13.12 16.92 13.35 16.31 13.35 15.5C13.35 14.74 13.12 14.17 12.6 13.75C12.13 13.32 11.47 13.08 10.71 13.08L5.52 13.08L5.52 18.02L10.62 18.02ZM38.09 22.47L32.76 22.47L32.76 20.86C31.44 22.28 29.69 23 27.61 23C25.63 23 24.07 22.33 22.89 21.05C21.71 19.77 21.1 18.06 21.1 15.98L21.1 5.64L26.38 5.64L26.38 14.84C26.38 15.83 26.67 16.64 27.19 17.26C27.71 17.87 28.41 18.16 29.26 18.16C30.35 18.16 31.2 17.78 31.81 17.02C32.43 16.26 32.71 15.08 32.71 13.46L32.71 5.64L38.04 5.64L38.09 22.47ZM54.57 22.47L40.4 22.47L40.4 21.48L47.06 9.91L40.59 9.91L40.59 5.64L54.47 5.64L54.47 6.63L47.82 18.21L54.52 18.21L54.52 22.47L54.57 22.47ZM71 22.47L56.88 22.47L56.88 21.48L63.49 9.91L57.02 9.91L57.02 5.64L70.9 5.64L70.9 6.63L64.24 18.21L70.95 18.21L71 22.47Z" fill="#718087" fill-opacity="1.000000" fill-rule="nonzero"/>
</svg>
