<svg width="97.422394" height="18.128296" viewBox="0 0 97.4224 18.1283" fill="none" xmlns="http://www.w3.org/2000/svg" xmlns:xlink="http://www.w3.org/1999/xlink">
	<desc>
			Created with Pixso.
	</desc>
	<defs/>
	<path id="H" d="M32.91 0.01L32.91 7.19L22.9 7.19L22.9 0.01L19.26 0L19.26 18.12L22.9 18.12L22.9 10.34L32.91 10.34L32.91 18.12L36.57 18.12L36.57 0.01L32.91 0.01Z" fill="#718087" fill-opacity="1.000000" fill-rule="nonzero"/>
	<path id="E" d="M81.42 0.01L81.42 18.12L97.42 18.12L95.39 14.93L85.08 14.93L85.08 10.34L95.06 10.34L95.06 7.27L85.08 7.27L85.08 3.12L95.37 3.12L97.36 0.01L81.42 0.01Z" fill="#718087" fill-opacity="1.000000" fill-rule="nonzero"/>
	<path id="C" d="M5.7 0C1.91 0 0 2.31 0 5.66L0 12.43C0 16.31 2.46 18.12 5.68 18.12L17.12 18.12L15 14.81L6.39 14.81C4.56 14.81 3.76 14.15 3.76 12.1L3.76 5.97C3.76 3.99 4.44 3.21 6.44 3.21L15.09 3.21L17.13 0L5.7 0Z" fill="#718087" fill-opacity="1.000000" fill-rule="nonzero"/>
	<path id="S" d="M65.42 0C63.23 0 60.98 1.32 60.98 4.7L60.98 5.57C60.98 9.1 63.14 10.45 65.3 10.46L72.89 10.46C73.68 10.46 74.32 10.59 74.32 11.92L74.32 13.46C74.3 14.66 73.7 14.93 72.86 14.93L62.88 14.93L60.84 18.12L73.1 18.12C76.05 18.12 78.06 16.65 78.06 13.25L78.06 12C78.06 8.72 76.2 7.17 73.31 7.17L66.06 7.17C65.26 7.17 64.7 6.95 64.7 5.76L64.7 4.5C64.7 3.49 65.08 3.12 66.02 3.12L75.52 3.12L77.51 0L65.42 0Z" fill="#718087" fill-opacity="1.000000" fill-rule="nonzero"/>
	<path id="A" d="M47.16 0.01L38.57 18.12L42.63 18.12L44.3 14.38L53.64 14.38L55.31 18.12L59.38 18.12L50.77 0.01L47.16 0.01ZM48.96 3.77L52.26 11.3L45.68 11.3L48.96 3.77Z" fill="#718087" fill-opacity="1.000000" fill-rule="nonzero"/>
</svg>
