<svg width="94.178558" height="20.105835" viewBox="0 0 94.1786 20.1058" fill="none" xmlns="http://www.w3.org/2000/svg" xmlns:xlink="http://www.w3.org/1999/xlink">
	<desc>
			Created with Pixso.
	</desc>
	<defs/>
	<path id="Vector" d="M9.55 9.55L0 9.55L0 0L9.55 0L9.55 9.55ZM10.54 9.55L20.1 9.55L20.1 0L10.54 0L10.54 9.55ZM94.17 9.09L94.17 7.43L92.12 7.43L92.12 4.86L92.05 4.88L90.08 5.48L90.08 7.43L87.03 7.43L87.03 6.35C87 5.94 87.12 5.53 87.36 5.2C87.48 5.07 87.63 4.96 87.79 4.9C87.96 4.83 88.13 4.8 88.31 4.81C88.62 4.81 88.92 4.88 89.2 5.01L89.28 5.05L89.28 3.3L89.24 3.29C88.87 3.18 88.48 3.13 88.1 3.14C87.53 3.13 86.98 3.26 86.48 3.53C86.01 3.78 85.62 4.16 85.37 4.63C85.1 5.12 84.96 5.68 84.97 6.24L84.97 7.43L83.54 7.43L83.54 9.09L84.97 9.09L84.97 16.07L87.03 16.07L87.03 9.09L90.08 9.09L90.08 13.52C90.08 15.35 90.94 16.28 92.64 16.28C92.93 16.27 93.22 16.24 93.51 16.18C93.73 16.14 93.94 16.07 94.15 15.98L94.17 15.96L94.17 14.29L94.09 14.34C93.96 14.43 93.82 14.49 93.68 14.52C93.54 14.56 93.41 14.59 93.27 14.59C93.11 14.61 92.95 14.58 92.8 14.53C92.65 14.47 92.51 14.39 92.4 14.27C92.18 13.95 92.08 13.56 92.12 13.17L92.12 9.09L94.17 9.09ZM42.16 3.76L42.16 3.76L42.16 3.76C41.84 3.75 41.53 3.87 41.29 4.1C41.18 4.2 41.08 4.33 41.02 4.48C40.96 4.63 40.93 4.78 40.93 4.94C40.93 5.1 40.96 5.25 41.02 5.4C41.08 5.54 41.17 5.67 41.29 5.77C41.52 5.99 41.84 6.11 42.16 6.1C42.48 6.11 42.79 5.99 43.03 5.77C43.15 5.67 43.24 5.54 43.3 5.4C43.37 5.25 43.4 5.1 43.39 4.94C43.4 4.79 43.37 4.63 43.3 4.49C43.24 4.34 43.15 4.21 43.04 4.1C42.92 3.99 42.79 3.9 42.63 3.84C42.48 3.78 42.32 3.75 42.16 3.76ZM37.09 6.8L37.09 16.07L39.16 16.07L39.16 4.02L36.29 4.02L32.65 12.97L29.11 4.02L26.12 4.02L26.12 16.07L28.07 16.07L28.07 6.8L28.14 6.8L31.87 16.07L33.35 16.07L37.02 6.8L37.09 6.8ZM79.04 7.22C78.42 7.19 77.81 7.28 77.23 7.5C76.65 7.71 76.12 8.04 75.68 8.46C75.26 8.92 74.94 9.45 74.73 10.03C74.52 10.61 74.43 11.23 74.46 11.85C74.44 12.44 74.53 13.03 74.73 13.58C74.93 14.14 75.25 14.65 75.65 15.08C76.07 15.48 76.57 15.8 77.12 16C77.66 16.21 78.25 16.3 78.83 16.27C79.44 16.3 80.04 16.21 80.61 15.99C81.18 15.77 81.69 15.44 82.13 15.02C82.54 14.57 82.86 14.04 83.07 13.46C83.28 12.89 83.37 12.28 83.34 11.66C83.4 10.47 83 9.3 82.2 8.41C81.78 8 81.29 7.69 80.74 7.49C80.2 7.28 79.62 7.19 79.04 7.22L79.04 7.22ZM62.57 7.23C61.96 7.19 61.34 7.28 60.76 7.5C60.19 7.71 59.66 8.04 59.21 8.47C58.8 8.92 58.47 9.45 58.26 10.04C58.06 10.62 57.97 11.23 58 11.85C57.97 12.44 58.06 13.03 58.26 13.59C58.47 14.14 58.78 14.65 59.18 15.08C59.61 15.49 60.1 15.8 60.65 16.01C61.2 16.21 61.78 16.3 62.37 16.28C62.97 16.3 63.58 16.21 64.14 15.99C64.71 15.78 65.23 15.44 65.66 15.02C66.07 14.57 66.39 14.04 66.6 13.46C66.81 12.89 66.9 12.28 66.87 11.67C66.94 10.47 66.53 9.3 65.73 8.41C65.32 8.01 64.82 7.69 64.28 7.49C63.73 7.28 63.15 7.19 62.57 7.23L62.57 7.23ZM71.15 7.22C70.29 7.19 69.45 7.45 68.77 7.96C68.47 8.18 68.24 8.47 68.07 8.81C67.91 9.14 67.83 9.51 67.84 9.88C67.83 10.24 67.9 10.61 68.04 10.95C68.18 11.26 68.39 11.53 68.65 11.75C69.04 12.04 69.46 12.27 69.9 12.45C70.26 12.59 70.61 12.75 70.94 12.93C71.12 13.02 71.27 13.15 71.4 13.31C71.49 13.45 71.54 13.63 71.53 13.8C71.53 14.38 71.09 14.66 70.2 14.66C69.82 14.65 69.44 14.58 69.07 14.46C68.66 14.32 68.28 14.12 67.92 13.87L67.84 13.81L67.84 15.79L67.87 15.8C68.22 15.96 68.58 16.07 68.96 16.14C69.34 16.22 69.73 16.27 70.12 16.28C71.02 16.32 71.91 16.06 72.64 15.53C72.94 15.3 73.18 15.01 73.34 14.67C73.5 14.33 73.58 13.95 73.57 13.57C73.59 13.03 73.41 12.51 73.07 12.09C72.59 11.6 72.01 11.22 71.36 11C70.92 10.85 70.51 10.64 70.14 10.37C70.06 10.28 69.99 10.17 69.95 10.06C69.91 9.95 69.89 9.82 69.89 9.7C69.89 9.58 69.92 9.46 69.97 9.36C70.03 9.25 70.11 9.16 70.21 9.09C70.46 8.91 70.77 8.82 71.08 8.84C71.43 8.84 71.78 8.89 72.12 9C72.45 9.09 72.75 9.24 73.03 9.42L73.12 9.48L73.12 7.6L73.08 7.59C72.79 7.47 72.48 7.38 72.16 7.33C71.83 7.27 71.49 7.23 71.15 7.23L71.15 7.22ZM49.21 7.23C48.35 7.21 47.5 7.41 46.74 7.82C46.04 8.2 45.48 8.79 45.11 9.5C44.73 10.27 44.54 11.12 44.55 11.98C44.54 12.75 44.73 13.52 45.1 14.2C45.44 14.85 45.97 15.38 46.62 15.74C47.3 16.1 48.06 16.29 48.84 16.28C49.69 16.3 50.53 16.11 51.29 15.7L51.31 15.69L51.31 13.83L51.23 13.89C50.92 14.11 50.59 14.28 50.23 14.41C49.92 14.52 49.59 14.59 49.26 14.6C48.91 14.61 48.56 14.56 48.23 14.43C47.9 14.3 47.61 14.11 47.36 13.85C46.87 13.29 46.62 12.55 46.66 11.8C46.62 11.03 46.88 10.28 47.39 9.69C47.63 9.43 47.93 9.23 48.26 9.09C48.59 8.96 48.94 8.9 49.3 8.91C50 8.92 50.67 9.15 51.23 9.58L51.31 9.64L51.31 7.68L51.29 7.67C50.99 7.51 50.67 7.41 50.35 7.35C49.97 7.27 49.59 7.23 49.21 7.23L49.21 7.23ZM54.88 8.93L54.88 7.43L52.85 7.43L52.85 16.07L54.88 16.07L54.88 11.65C54.85 11 55.03 10.36 55.38 9.82C55.53 9.6 55.72 9.42 55.95 9.3C56.18 9.18 56.44 9.12 56.7 9.12C56.9 9.13 57.11 9.16 57.31 9.21C57.48 9.25 57.64 9.32 57.78 9.4L57.87 9.47L57.87 7.42L57.83 7.41C57.58 7.31 57.31 7.27 57.04 7.28C56.54 7.28 56.06 7.45 55.68 7.77C55.33 8.08 55.06 8.48 54.9 8.93L54.88 8.93ZM43.15 7.43L41.12 7.43L41.12 16.07L43.15 16.07L43.15 7.43ZM78.95 14.59C78.62 14.61 78.29 14.55 77.99 14.43C77.69 14.3 77.42 14.1 77.2 13.86C76.75 13.26 76.53 12.53 76.57 11.78C76.52 11.02 76.75 10.27 77.2 9.65C77.41 9.4 77.68 9.21 77.98 9.08C78.28 8.95 78.6 8.89 78.93 8.91C79.25 8.89 79.56 8.95 79.86 9.07C80.15 9.19 80.41 9.38 80.62 9.62C81.07 10.23 81.29 10.98 81.23 11.73C81.29 12.49 81.08 13.24 80.65 13.87C80.45 14.12 80.18 14.31 79.89 14.43C79.59 14.56 79.27 14.61 78.95 14.59ZM62.48 14.59C62.15 14.61 61.83 14.55 61.52 14.43C61.22 14.3 60.95 14.1 60.73 13.86C60.28 13.26 60.06 12.53 60.1 11.79C60.06 11.02 60.28 10.27 60.73 9.65C60.95 9.41 61.21 9.21 61.51 9.08C61.81 8.95 62.14 8.89 62.46 8.91C62.78 8.89 63.1 8.95 63.39 9.07C63.68 9.2 63.94 9.38 64.15 9.62C64.6 10.23 64.82 10.98 64.77 11.73C64.82 12.49 64.62 13.25 64.19 13.87C63.98 14.12 63.72 14.31 63.42 14.44C63.12 14.56 62.8 14.62 62.48 14.59L62.48 14.59ZM9.55 20.1L0 20.1L0 10.55L9.55 10.55L9.55 20.1ZM10.54 20.1L20.1 20.1L20.1 10.55L10.54 10.55L10.54 20.1Z" fill="#718087" fill-opacity="1.000000" fill-rule="evenodd"/>
</svg>
