<svg width="96.000000" height="23.000000" viewBox="0 0 96 23" fill="none" xmlns="http://www.w3.org/2000/svg" xmlns:xlink="http://www.w3.org/1999/xlink">
	<desc>
			Created with Pixso.
	</desc>
	<defs/>
	<g opacity="0.800000">
		<path id="Vector" d="M21.38 15.36L21.38 20.32C19.58 21.9 15.27 22.84 12.06 22.84C8.86 22.84 0 20.86 0 11.54C0 2.22 8.43 0.21 11.84 0.21C15.24 0.21 18.87 0.83 20.98 2.22L20.98 6.58C20.98 7.13 20.22 7.08 20.22 6.58C20.18 5.84 18.17 1.38 13.16 1.48C7.76 1.59 4.1 5.79 4.1 11.34C4.1 16.89 7.65 21.65 13.01 21.5C14.76 21.45 16.57 20.91 17.45 20.19L17.47 15.36C17.47 13.97 16.62 13.48 15.77 13.48C15.22 13.48 15.22 12.68 15.77 12.68L23.08 12.68C23.63 12.68 23.63 13.53 23.08 13.48C22.23 13.48 21.38 13.97 21.38 15.36ZM70.65 6.59C70.65 7.13 70.1 7.08 70.1 6.59C70.05 5.84 68.05 1.23 63.04 1.34C57.63 1.44 53.98 5.8 53.98 11.35C53.98 16.89 57.48 21.8 62.84 21.66C68.2 21.51 70.75 16.26 70.95 15.56C71.15 14.87 71.5 14.97 71.5 15.51L71.5 19.58C69.3 21.16 65.14 22.85 61.94 22.85C58.74 22.85 49.87 20.87 49.87 11.55C49.87 2.22 58.29 0 61.69 0C65.1 0 68.55 0.84 70.66 2.22L70.66 6.59L70.65 6.59ZM47.97 0.54C48.77 0.54 48.77 1.28 47.97 1.28C47.12 1.28 46.27 1.78 46.27 3.17L46.17 14C46.17 19.18 41.92 23 36.68 23C31.43 23 27.34 19.18 27.34 14L27.34 3.17C27.34 1.78 26.49 1.28 25.64 1.28C24.84 1.28 24.84 0.54 25.64 0.54L33.05 0.54C33.85 0.54 33.85 1.28 33.05 1.28C32.19 1.28 31.34 1.78 31.34 3.17L31.34 15.26C31.34 18.92 34.36 21.89 38.05 21.89C41.75 21.89 44.75 18.17 44.75 14.52L44.56 3.17C44.56 1.78 43.71 1.28 42.86 1.28C42.06 1.28 42.06 0.54 42.86 0.54L47.97 0.54ZM95.14 6.59C95.14 7.13 94.59 7.08 94.59 6.59C94.54 5.84 92.54 1.23 87.53 1.34C82.12 1.44 78.46 5.8 78.46 11.35C78.46 16.89 81.97 21.8 87.33 21.66C92.69 21.51 95.24 16.26 95.44 15.56C95.64 14.87 96 14.97 96 15.51L96 19.58C93.79 21.16 89.64 22.85 86.43 22.85C83.23 22.85 74.36 20.87 74.36 11.55C74.36 2.22 82.77 0 86.18 0C89.59 0 93.04 0.84 95.15 2.22L95.15 6.59L95.14 6.59Z" fill="#718087" fill-opacity="1.000000" fill-rule="nonzero"/>
	</g>
</svg>
