<svg width="85.000000" height="26.686035" viewBox="0 0 85 26.686" fill="none" xmlns="http://www.w3.org/2000/svg" xmlns:xlink="http://www.w3.org/1999/xlink">
	<desc>
			Created with Pixso.
	</desc>
	<defs/>
	<path id="Vector" d="M44.79 6.7C44.79 7.66 44.02 8.44 43.07 8.44C42.11 8.44 41.34 7.66 41.34 6.7C41.34 5.74 42.08 4.96 43.07 4.96C44.05 4.99 44.79 5.77 44.79 6.7ZM37.68 10.2L37.68 10.63C37.68 10.63 36.85 9.56 35.1 9.56C32.21 9.56 29.95 11.78 29.95 14.85C29.95 17.89 32.18 20.14 35.1 20.14C36.88 20.14 37.68 19.04 37.68 19.04L37.68 19.5C37.68 19.71 37.84 19.87 38.05 19.87L40.2 19.87L40.2 9.82L38.05 9.82C37.84 9.83 37.68 10.01 37.68 10.2ZM37.68 16.64C37.28 17.23 36.48 17.73 35.53 17.73C33.83 17.73 32.52 16.66 32.52 14.85C32.52 13.03 33.83 11.96 35.53 11.96C36.45 11.96 37.3 12.5 37.68 13.06L37.68 16.64ZM41.79 9.83L44.34 9.83L44.34 19.87L41.79 19.87L41.79 9.83ZM79.87 9.56C78.12 9.56 77.29 10.63 77.29 10.63L77.29 4.99L74.75 4.99L74.75 19.87L76.9 19.87C77.11 19.87 77.27 19.68 77.27 19.5L77.27 19.04C77.27 19.04 78.09 20.14 79.84 20.14C82.74 20.14 85 17.89 85 14.85C85 11.8 82.74 9.56 79.87 9.56ZM79.45 17.71C78.46 17.71 77.69 17.2 77.29 16.61L77.29 13.03C77.69 12.5 78.54 11.94 79.45 11.94C81.14 11.94 82.45 13 82.45 14.82C82.45 16.64 81.15 17.71 79.45 17.71ZM73.42 13.91L73.42 19.9L70.87 19.9L70.87 14.21C70.87 12.55 70.34 11.88 68.9 11.88C68.13 11.88 67.34 12.28 66.83 12.87L66.83 19.87L64.28 19.87L64.28 9.83L66.3 9.83C66.51 9.83 66.67 10.01 66.67 10.2L66.67 10.63C67.42 9.85 68.4 9.56 69.38 9.56C70.5 9.56 71.43 9.88 72.17 10.52C73.07 11.27 73.42 12.23 73.42 13.91ZM58.1 9.56C56.34 9.56 55.52 10.63 55.52 10.63L55.52 4.99L52.97 4.99L52.97 19.87L55.12 19.87C55.33 19.87 55.49 19.68 55.49 19.5L55.49 19.04C55.49 19.04 56.32 20.14 58.07 20.14C60.96 20.14 63.22 17.89 63.22 14.85C63.25 11.8 60.99 9.56 58.1 9.56ZM57.67 17.71C56.69 17.71 55.92 17.2 55.52 16.61L55.52 13.03C55.92 12.5 56.77 11.94 57.67 11.94C59.37 11.94 60.67 13 60.67 14.82C60.67 16.64 59.37 17.71 57.67 17.71ZM50.77 9.56C51.54 9.56 51.94 9.69 51.94 9.69L51.94 12.07C51.94 12.07 49.81 11.35 48.48 12.87L48.48 19.9L45.93 19.9L45.93 9.83L48.09 9.83C48.3 9.83 48.46 10.01 48.46 10.2L48.46 10.63C48.94 10.07 49.97 9.56 50.77 9.56ZM24.29 18.96C24.16 18.64 24.03 18.29 23.9 18C23.68 17.52 23.47 17.06 23.28 16.64L23.26 16.61C21.43 12.6 19.46 8.54 17.39 4.54L17.31 4.38C17.09 3.96 16.88 3.54 16.67 3.12C16.41 2.64 16.14 2.13 15.72 1.65C14.87 0.58 13.65 0 12.34 0C11.02 0 9.82 0.58 8.95 1.6C8.55 2.08 8.26 2.59 7.99 3.07C7.78 3.49 7.57 3.91 7.35 4.32L7.27 4.48C5.23 8.49 3.24 12.55 1.4 16.56L1.38 16.61C1.19 17.04 0.98 17.49 0.77 17.97C0.63 18.27 0.5 18.59 0.37 18.93C0.02 19.92 -0.08 20.86 0.05 21.82C0.34 23.82 1.67 25.51 3.5 26.25C4.19 26.55 4.91 26.68 5.65 26.68C5.87 26.68 6.13 26.65 6.34 26.63C7.22 26.52 8.12 26.23 9 25.72C10.09 25.11 11.12 24.22 12.29 22.94C13.46 24.22 14.52 25.11 15.58 25.72C16.46 26.23 17.36 26.52 18.24 26.63C18.45 26.65 18.72 26.68 18.93 26.68C19.67 26.68 20.42 26.55 21.08 26.25C22.94 25.51 24.24 23.8 24.53 21.82C24.74 20.88 24.64 19.95 24.29 18.96ZM12.32 20.35C10.88 18.53 9.95 16.82 9.64 15.38C9.5 14.77 9.48 14.23 9.56 13.75C9.61 13.33 9.77 12.95 9.98 12.63C10.49 11.91 11.34 11.46 12.32 11.46C13.3 11.46 14.18 11.88 14.66 12.63C14.87 12.95 15.03 13.33 15.08 13.75C15.16 14.23 15.13 14.79 15 15.38C14.68 16.8 13.75 18.51 12.32 20.35ZM22.91 21.61C22.73 22.99 21.8 24.2 20.5 24.73C19.86 25 19.17 25.08 18.48 25C17.81 24.92 17.15 24.7 16.46 24.3C15.5 23.77 14.55 22.94 13.43 21.71C15.19 19.55 16.25 17.57 16.65 15.81C16.83 14.98 16.86 14.23 16.78 13.54C16.67 12.87 16.43 12.26 16.06 11.72C15.24 10.52 13.86 9.83 12.32 9.83C10.78 9.83 9.4 10.55 8.57 11.72C8.2 12.26 7.96 12.87 7.86 13.54C7.75 14.23 7.78 15.01 7.99 15.81C8.39 17.57 9.48 19.58 11.2 21.74C10.11 22.97 9.13 23.8 8.17 24.33C7.48 24.73 6.82 24.95 6.16 25.02C5.44 25.11 4.75 25 4.14 24.76C2.84 24.22 1.91 23.02 1.72 21.63C1.64 20.96 1.7 20.3 1.96 19.55C2.04 19.28 2.17 19.01 2.31 18.69C2.49 18.27 2.7 17.81 2.92 17.36L2.94 17.31C4.78 13.33 6.74 9.26 8.79 5.31L8.87 5.15C9.08 4.75 9.29 4.32 9.5 3.92C9.72 3.49 9.95 3.09 10.25 2.75C10.8 2.11 11.55 1.76 12.37 1.76C13.19 1.76 13.94 2.11 14.5 2.75C14.79 3.09 15.03 3.5 15.24 3.92C15.45 4.32 15.66 4.75 15.88 5.15L15.96 5.31C17.97 9.28 19.91 13.29 21.77 17.33L21.77 17.36C21.98 17.79 22.17 18.27 22.38 18.7C22.51 19.02 22.65 19.28 22.73 19.55C22.94 20.24 23.02 20.91 22.91 21.61Z" fill="#718087" fill-opacity="1.000000" fill-rule="nonzero"/>
</svg>
