<svg width="75.000000" height="16.000000" viewBox="0 0 75 16" fill="none" xmlns="http://www.w3.org/2000/svg" xmlns:xlink="http://www.w3.org/1999/xlink">
	<desc>
			Created with Pixso.
	</desc>
	<defs/>
	<path id="Vector" d="M12.17 0L15.05 0L15.05 9.35C15.05 14.27 11.98 16 7.52 16C3.07 16 0 14.27 0 9.35L0 0.37C0 0.11 0.12 0 0.38 0L3.26 0L3.26 9.2C3.26 12.15 4.54 13.37 7.52 13.37C10.51 13.37 11.79 12.15 11.79 9.2L11.79 0.37C11.79 0.11 11.92 0 12.17 0ZM44.82 2.55L44.82 6.5L52.12 6.5C52.25 6.5 52.3 6.56 52.25 6.69L51.45 8.71C51.37 8.89 51.26 8.97 51.02 8.97L46.74 8.97C45.33 8.97 44.82 9.41 44.82 10.37L44.82 13.16L54.7 13.16C54.83 13.16 54.88 13.23 54.83 13.36L54 15.46C53.92 15.64 53.81 15.72 53.57 15.72L42.75 15.72C41.92 15.72 41.6 15.42 41.6 14.79L41.6 1.09C41.6 0.32 42.02 0 43.1 0L54.7 0C54.83 0 54.88 0.06 54.83 0.17L54 2.29C53.92 2.47 53.81 2.55 53.57 2.55L44.82 2.55ZM35.66 11.37C35.66 14.51 33.49 15.72 30.45 15.72L22.39 15.72C21.54 15.72 21.24 15.42 21.24 14.79L21.24 1.09C21.24 0.32 21.64 0 22.74 0L29.29 0C32.15 0 34.93 0.5 34.93 3.99C34.93 5.49 34.4 6.76 33.14 7.42C34.88 7.9 35.66 9.49 35.66 11.37ZM24.41 6.54L29.52 6.54C31.21 6.54 31.69 5.88 31.69 4.51C31.69 3.14 31.21 2.49 29.52 2.49L24.41 2.49L24.41 6.54ZM32.42 11.07C32.42 9.62 31.93 8.91 30.11 8.91L26.34 8.91C24.93 8.91 24.41 9.35 24.41 10.31L24.41 13.23L30.11 13.23C31.93 13.23 32.42 12.51 32.42 11.07ZM74.81 15.72L71.88 15.72C71.64 15.72 71.55 15.62 71.45 15.46L68.34 9.72L65.49 9.72C64.09 9.72 63.56 10.16 63.56 11.12L63.56 15.72L60.76 15.72C60.5 15.72 60.38 15.59 60.38 15.34L60.38 1.09C60.38 0.32 60.79 0 61.87 0L68.46 0C72.3 0 74.61 1.02 74.61 4.83C74.61 7.78 73.22 8.94 71.5 9.4L74.96 15.44C75.02 15.54 75.02 15.72 74.81 15.72ZM71.37 4.9C71.37 3.3 70.94 2.52 68.93 2.52L63.56 2.52L63.56 7.28L68.93 7.28C70.94 7.28 71.37 6.51 71.37 4.9Z" fill="#718087" fill-opacity="1.000000" fill-rule="nonzero"/>
</svg>
